<svg height="128" width="128" xmlns="http://www.w3.org/2000/svg"><g fill="#2684ff"><path d="m7.881695 10.250155a3.857737 3.857737 0 0 0 -3.857737 4.474974l16.376092 99.413872a5.246522 5.246522 0 0 0 5.13079 4.378531h78.562806a3.857737 3.857737 0 0 0 3.857737-3.240499l16.414669-100.513327a3.857737 3.857737 0 0 0 -3.857737-4.474974l-112.62662-.038577zm68.957042 71.850344h-25.075288l-6.789616-35.452599h37.940839z"/><path d="m119.119529 46.647899h-36.204858l-6.075935 35.452599h-25.075288l-29.608128 35.163269a5.227233 5.227233 0 0 0 3.37552 1.273053h78.582094a3.857737 3.857737 0 0 0 3.857737-3.240499l11.148859-68.648423z"/></g></svg>